<?xml version="1.0" encoding="UTF-8" standalone="no"?>
<svg width="90px" height="59px" viewBox="0 0 90 59" version="1.1" xmlns="http://www.w3.org/2000/svg" xmlns:xlink="http://www.w3.org/1999/xlink">
    <!-- Generator: Sketch 43.2 (39069) - http://www.bohemiancoding.com/sketch -->
    <title>Shape</title>
    <desc>Created with Sketch.</desc>
    <defs></defs>
    <g id="Ript-&amp;-Canva" stroke="none" stroke-width="1" fill="none" fill-rule="evenodd">
        <g id="Artboard" transform="translate(-506.000000, -48.000000)" fill-rule="nonzero" fill="#000000">
            <path d="M591,48 L511,48 C508.239,48 506,50.239 506,53 L506,102 C506,104.761 508.239,107 511,107 L591,107 C593.761,107 596,104.761 596,102 L596,53 C596,50.239 593.761,48 591,48 Z M593,101.879 L567.178,76.057 L593,55.4 L593,101.879 Z M537.152,77.922 L551,89 L564.848,77.922 C564.883,77.966 564.899,78.02 564.94,78.061 L590.879,104 L511.121,104 L537.06,78.061 C537.102,78.02 537.117,77.966 537.152,77.922 Z M591,51 C591.155,51 591.306,51.022 591.451,51.056 C591.497,51.067 591.54,51.084 591.586,51.098 C591.683,51.128 591.778,51.163 591.868,51.207 C591.915,51.23 591.96,51.255 592.005,51.282 C592.088,51.331 592.168,51.386 592.243,51.447 C592.282,51.478 592.322,51.508 592.358,51.541 C592.44,51.617 592.513,51.701 592.581,51.79 C592.598,51.811 592.617,51.831 592.633,51.853 L551,85.158 L509.367,51.852 C509.383,51.83 509.402,51.811 509.419,51.789 C509.487,51.7 509.561,51.616 509.642,51.54 C509.678,51.507 509.718,51.477 509.757,51.446 C509.832,51.386 509.911,51.33 509.995,51.281 C510.04,51.255 510.085,51.229 510.132,51.206 C510.222,51.162 510.317,51.127 510.414,51.097 C510.459,51.083 510.503,51.066 510.549,51.055 C510.694,51.022 510.845,51 511,51 L591,51 Z M534.822,76.057 L509,101.879 L509,55.4 L534.822,76.057 Z" id="Shape"></path>
        </g>
    </g>
</svg>