<?xml version="1.0" encoding="UTF-8" standalone="no"?>
<svg width="100px" height="86px" viewBox="0 0 100 86" version="1.1" xmlns="http://www.w3.org/2000/svg" xmlns:xlink="http://www.w3.org/1999/xlink">
    <!-- Generator: Sketch 43.2 (39069) - http://www.bohemiancoding.com/sketch -->
    <title>noun_734660_cc</title>
    <desc>Created with Sketch.</desc>
    <defs></defs>
    <g id="Ript-&amp;-Canva" stroke="none" stroke-width="1" fill="none" fill-rule="evenodd">
        <g id="Artboard" transform="translate(-699.000000, -231.000000)" fill-rule="nonzero" fill="#000000">
            <g id="noun_734660_cc" transform="translate(699.000000, 231.000000)">
                <path d="M48.412,18.44 L38.59,18.44 L38.59,15.516 L48.412,15.516 L48.412,18.44 L48.412,18.44 Z M80.163,21.117 L38.591,21.117 L38.591,24.041 L80.164,24.041 L80.164,21.117 L80.163,21.117 Z M80.163,26.714 L38.591,26.714 L38.591,29.638 L80.164,29.638 L80.164,26.714 L80.163,26.714 Z M80.163,32.315 L38.591,32.315 L38.591,35.239 L80.164,35.239 L80.164,32.315 L80.163,32.315 Z M99.211,41.737 L99.195,41.956 L93.216,81.419 C93.15,83.491 91.446,85.156 89.359,85.156 L9.446,85.156 C7.356,85.156 5.648,83.486 5.587,81.411 L0.789,47.333 C0.789,45.205 2.52,43.474 4.649,43.474 L5.585,43.474 L5.585,24.156 C5.585,22.028 7.317,20.297 9.446,20.297 L30.689,20.297 L30.689,0.844 L73.005,0.844 L88.292,16.133 L88.292,20.297 L89.358,20.297 C91.485,20.297 93.217,22.028 93.217,24.156 L93.217,37.879 L95.353,37.879 C97.48,37.879 99.211,39.609 99.211,41.737 Z M88.292,23.221 L88.292,37.879 L90.293,37.879 L90.293,24.156 C90.293,23.641 89.873,23.221 89.358,23.221 L88.292,23.221 Z M73.862,5.836 L73.862,15.276 L83.301,15.276 L73.862,5.836 Z M33.613,3.768 L33.613,43.474 L50.56,43.474 L52.185,40.838 L38.591,40.838 L38.591,37.914 L53.989,37.914 L54.011,37.879 L85.369,37.879 L85.369,18.201 L72.4,18.201 L70.938,16.739 L70.938,3.769 L33.613,3.769 L33.613,3.768 Z M30.689,29.808 L14.538,29.808 L14.538,43.474 L30.689,43.474 L30.689,29.808 Z M8.509,43.474 L11.614,43.474 L11.614,26.884 L30.689,26.884 L30.689,23.221 L9.446,23.221 C8.929,23.221 8.509,23.64 8.509,24.156 L8.509,43.474 Z M96.283,41.652 C96.24,41.176 95.839,40.803 95.354,40.803 L55.642,40.803 L52.191,46.398 L4.649,46.398 C4.16,46.398 3.757,46.775 3.716,47.254 L8.509,81.296 C8.509,81.812 8.929,82.232 9.446,82.232 L89.359,82.232 C89.874,82.232 90.294,81.812 90.294,81.296 L90.31,81.077 L96.283,41.652 Z" id="Shape"></path>
            </g>
        </g>
    </g>
</svg>